<?xml version="1.0" encoding="utf-8"?>
<!-- Generator: Adobe Illustrator 24.2.1, SVG Export Plug-In . SVG Version: 6.00 Build 0)  -->
<svg version="1.0" id="Layer_1" xmlns="http://www.w3.org/2000/svg" xmlns:xlink="http://www.w3.org/1999/xlink" x="0px" y="0px"
	 viewBox="204 338 1092 324" style="enable-background:new 204 338 1092 324;" xml:space="preserve">
<style type="text/css">
	.st0{fill:url(#SVGID_1_);}
	.st1{fill:url(#SVGID_2_);}
	.st2{fill:url(#SVGID_3_);}
	.st3{fill:url(#SVGID_4_);}
	.st4{fill:url(#SVGID_5_);}
	.st5{fill:url(#SVGID_6_);}
	.st6{fill:url(#SVGID_7_);}
	.st7{fill:url(#SVGID_8_);}
	.st8{fill:url(#SVGID_9_);}
	.st9{fill:url(#SVGID_10_);}
	.st10{fill:url(#SVGID_11_);}
	.st11{fill:url(#SVGID_12_);}
	.st12{fill:url(#SVGID_13_);}
	.st13{fill:url(#SVGID_14_);}
	.st14{fill:url(#SVGID_15_);}
	.st15{fill:url(#SVGID_16_);}
	.st16{fill:#FFFFFF;}
	.st17{fill:url(#SVGID_17_);}
	.st18{fill:url(#SVGID_18_);}
	.st19{fill:url(#SVGID_19_);}
	.st20{fill:url(#SVGID_20_);}
	.st21{fill:url(#SVGID_21_);}
	.st22{fill:url(#SVGID_22_);}
	.st23{fill:url(#SVGID_23_);}
	.st24{fill:url(#SVGID_24_);}
</style>
<rect x="204" y="338" width="1092" height="324"/>
<g>
	<g>
		<linearGradient id="SVGID_1_" gradientUnits="userSpaceOnUse" x1="478.6018" y1="429.0396" x2="443.4601" y2="592.3453">
			<stop  offset="0" style="stop-color:#61F5E5"/>
			<stop  offset="1" style="stop-color:#005EFF"/>
		</linearGradient>
		<path class="st0" d="M550.3,531.8L444.9,617L358,553.9l114.9-69c5-3,11.2-2.7,15.9,0.8L550.3,531.8z"/>
		<linearGradient id="SVGID_2_" gradientUnits="userSpaceOnUse" x1="265.2228" y1="512.5362" x2="311.8492" y2="439.1729">
			<stop  offset="0" style="stop-color:#FFD524"/>
			<stop  offset="1" style="stop-color:#F15A29"/>
		</linearGradient>
		<path class="st1" d="M204.3,468.2L309.7,383l86.9,63.1l-114.9,69c-5,3-11.2,2.7-15.9-0.8L204.3,468.2z"/>
		<linearGradient id="SVGID_3_" gradientUnits="userSpaceOnUse" x1="471.3638" y1="526.4064" x2="339.962" y2="374.7889">
			<stop  offset="0" style="stop-color:#F15A29"/>
			<stop  offset="1" style="stop-color:#FFD524"/>
		</linearGradient>
		<path class="st2" d="M408.8,353.3l141.5,114.9l-97.9,68.5l-72.5-78.1c-31.6-34-80.2-46.5-124.3-31.9l0,0l90.1-73.4
			C364,338.4,390.4,338.4,408.8,353.3z"/>
		<linearGradient id="SVGID_4_" gradientUnits="userSpaceOnUse" x1="322.63" y1="446.6951" x2="376.3762" y2="643.0754">
			<stop  offset="0" style="stop-color:#005EFF"/>
			<stop  offset="1" style="stop-color:#61F5E5"/>
		</linearGradient>
		<path class="st3" d="M345.8,646.7L204.3,531.8l97.9-68.5l72.5,78.1c31.6,34,80.2,46.5,124.3,31.9h0l-90.1,73.4
			C390.5,661.6,364.1,661.6,345.8,646.7z"/>
	</g>
	<g>
		<path class="st16" d="M715.1,527.1V555h-98.3v-22l49.3-56.8h-47.9v-27.7h94.9v21.8l-49.3,56.8H715.1z"/>
		<path class="st16" d="M779.9,517.7l-11,11.2V555h-37.3V409.2h37.3v76.4l38.1-37.1h44.2L807,494.1L855,555h-45.2L779.9,517.7z"/>
		<path class="st16" d="M907,447.5v30.3h60.7v30.1H907V555h-38.9V417.5H976v30.1H907z"/>
		<path class="st16" d="M983.5,501.6c0-32,25.3-54.8,60.1-54.8c35.2,0,60.1,22.8,60.1,54.8c0,32.2-25,55.2-60.1,55.2
			C1008.8,556.8,983.5,533.8,983.5,501.6z M1066,501.6c0-16.1-9.6-25.2-22.4-25.2c-12.6,0-22.4,9-22.4,25.2
			c0,16.3,9.8,25.5,22.4,25.5C1056.4,527.1,1066,517.9,1066,501.6z"/>
		<path class="st16" d="M1121,409.2h37.3V555H1121V409.2z"/>
		<path class="st16" d="M1295.7,409.2V555h-35.6v-10.6c-7.1,8.4-17.5,12.4-31.2,12.4c-29.1,0-52.5-21.2-52.5-55.2
			c0-33.8,23.4-54.8,52.5-54.8c12.4,0,22.4,3.5,29.5,11v-48.5H1295.7z M1259,501.6c0-16.1-9.6-25.2-22.2-25.2
			c-12.8,0-22.4,9-22.4,25.2c0,16.3,9.6,25.5,22.4,25.5C1249.4,527.1,1259,517.9,1259,501.6z"/>
	</g>
</g>
</svg>
